<svg width="96" height="88" viewBox="0 0 96 88" fill="none" xmlns="http://www.w3.org/2000/svg">
<path d="M2.3267 47H20.2756V43.0369H8.87216V42.858L13.3849 38.2685C18.473 33.3849 19.8793 31.0071 19.8793 28.054C19.8793 23.669 16.3125 20.4602 11.0455 20.4602C5.85511 20.4602 2.1733 23.6818 2.1733 28.6548H6.68608C6.68608 25.983 8.37358 24.3082 10.9815 24.3082C13.4744 24.3082 15.3281 25.8295 15.3281 28.2969C15.3281 30.483 13.9986 32.0426 11.4162 34.6634L2.3267 43.5739V47ZM28.5213 27.3636H23.6122L29.4418 37.1818L23.4588 47H28.3679L32.4844 39.9304L36.6392 47H41.5099L35.4886 37.1818L41.4077 27.3636H36.5114L32.4844 34.6122L28.5213 27.3636Z" fill="white"/>
<path d="M4.20455 7.76989C4.20455 8.79261 3.4233 9.26136 2.7983 9.26136C2.10227 9.26136 1.60511 8.75 1.60511 7.95455V4.54545H0.767045V8.01136C0.767045 9.40341 1.50568 10.071 2.52841 10.071C3.35227 10.071 3.89205 9.63068 4.14773 9.0767H4.20455V10H5.04261V4.54545H4.20455V7.76989ZM6.57759 12.0455H7.41566V9.16193H7.48668C7.67134 9.46023 8.02646 10.1136 9.07759 10.1136C10.4412 10.1136 11.3929 9.01989 11.3929 7.28693C11.3929 5.56818 10.4412 4.47443 9.06339 4.47443C7.99805 4.47443 7.67134 5.12784 7.48668 5.41193H7.38725V4.54545H6.57759V12.0455ZM7.40146 7.27273C7.40146 6.05114 7.94123 5.22727 8.96396 5.22727C10.0293 5.22727 10.5549 6.12216 10.5549 7.27273C10.5549 8.4375 10.0151 9.3608 8.96396 9.3608C7.95543 9.3608 7.40146 8.50852 7.40146 7.27273ZM17.856 4.54545H16.6912V3.23864H15.8532V4.54545H15.0293V5.25568H15.8532V8.66477C15.8532 9.61648 16.6202 10.071 17.3304 10.071C17.6429 10.071 17.8418 10.0142 17.9554 9.97159L17.785 9.21875C17.714 9.23295 17.6003 9.26136 17.4157 9.26136C17.0463 9.26136 16.6912 9.14773 16.6912 8.4375V5.25568H17.856V4.54545ZM21.274 10.1136C22.7512 10.1136 23.7456 8.99148 23.7456 7.30114C23.7456 5.59659 22.7512 4.47443 21.274 4.47443C19.7967 4.47443 18.8024 5.59659 18.8024 7.30114C18.8024 8.99148 19.7967 10.1136 21.274 10.1136ZM21.274 9.3608C20.1518 9.3608 19.6404 8.39489 19.6404 7.30114C19.6404 6.20739 20.1518 5.22727 21.274 5.22727C22.3961 5.22727 22.9075 6.20739 22.9075 7.30114C22.9075 8.39489 22.3961 9.3608 21.274 9.3608Z" fill="white"/>
<path d="M3.19602 60.5455H1.97443V59.9915C1.97443 59.4517 2.2017 59.1676 2.75568 59.1676C2.99716 59.1676 3.1392 59.2244 3.22443 59.2528L3.46591 58.5284C3.33807 58.4716 3.08239 58.3864 2.67045 58.3864C1.8892 58.3864 1.13636 58.8551 1.13636 59.7926V60.5455H0.255682V61.2557H1.13636V66H1.97443V61.2557H3.19602V60.5455ZM5.81942 66.1278C6.77113 66.1278 7.26829 65.6165 7.43874 65.2614H7.48136V66H8.31942V62.4062C8.31942 60.6733 6.9984 60.4744 6.30238 60.4744C5.47852 60.4744 4.54102 60.7585 4.11488 61.7528L4.91033 62.0369C5.09499 61.6392 5.53178 61.2131 6.33079 61.2131C7.10138 61.2131 7.48136 61.6214 7.48136 62.321V62.3494C7.48136 62.7543 7.06942 62.7188 6.07511 62.8466C5.06303 62.978 3.95863 63.2017 3.95863 64.4517C3.95863 65.517 4.78249 66.1278 5.81942 66.1278ZM5.94727 65.375C5.27965 65.375 4.7967 65.0767 4.7967 64.4943C4.7967 63.8551 5.37908 63.6562 6.03249 63.571C6.38761 63.5284 7.33931 63.429 7.48136 63.2585V64.0256C7.48136 64.7074 6.94158 65.375 5.94727 65.375ZM13.7127 61.767C13.4499 60.9929 12.8604 60.4744 11.7809 60.4744C10.6303 60.4744 9.77805 61.1278 9.77805 62.0511C9.77805 62.804 10.2255 63.3082 11.2269 63.5426L12.136 63.7557C12.6864 63.8835 12.9457 64.1463 12.9457 64.5227C12.9457 64.9915 12.4485 65.375 11.6673 65.375C10.9819 65.375 10.5522 65.0803 10.4031 64.4943L9.6076 64.6932C9.80291 65.62 10.5664 66.1136 11.6815 66.1136C12.9492 66.1136 13.8121 65.4212 13.8121 64.4801C13.8121 63.7202 13.3363 63.2408 12.3633 63.0028L11.5536 62.804C10.9073 62.6442 10.6161 62.4276 10.6161 62.0085C10.6161 61.5398 11.1133 61.1989 11.7809 61.1989C12.5124 61.1989 12.8143 61.6037 12.9599 61.9801L13.7127 61.767ZM17.4458 60.5455H16.2811V59.2386H15.443V60.5455H14.6191V61.2557H15.443V64.6648C15.443 65.6165 16.21 66.071 16.9203 66.071C17.2328 66.071 17.4316 66.0142 17.5453 65.9716L17.3748 65.2188C17.3038 65.233 17.1902 65.2614 17.0055 65.2614C16.6362 65.2614 16.2811 65.1477 16.2811 64.4375V61.2557H17.4458V60.5455ZM20.9348 66.1136C22.0428 66.1136 22.8525 65.5597 23.1081 64.7358L22.2985 64.5085C22.0854 65.0767 21.5918 65.3608 20.9348 65.3608C19.9512 65.3608 19.2729 64.7251 19.2338 63.5568H23.1934V63.2017C23.1934 61.1705 21.986 60.4744 20.8496 60.4744C19.3723 60.4744 18.3922 61.6392 18.3922 63.3153C18.3922 64.9915 19.3581 66.1136 20.9348 66.1136ZM19.2338 62.8324C19.2907 61.9837 19.8908 61.2273 20.8496 61.2273C21.7587 61.2273 22.3411 61.9091 22.3411 62.8324H19.2338ZM24.4682 66H25.3063V62.5483C25.3063 61.8097 25.8887 61.2699 26.6841 61.2699C26.9078 61.2699 27.1387 61.3125 27.1955 61.3267V60.4744C27.0996 60.4673 26.8794 60.4602 26.7551 60.4602C26.1017 60.4602 25.5336 60.8295 25.3347 61.3693H25.2779V60.5455H24.4682V66ZM31.0014 66H31.8395V62.5483C31.8395 61.8097 32.4219 61.2699 33.2173 61.2699C33.4411 61.2699 33.6719 61.3125 33.7287 61.3267V60.4744C33.6328 60.4673 33.4126 60.4602 33.2884 60.4602C32.6349 60.4602 32.0668 60.8295 31.8679 61.3693H31.8111V60.5455H31.0014V66ZM38.1596 63.7699C38.1596 64.7926 37.3784 65.2614 36.7534 65.2614C36.0574 65.2614 35.5602 64.75 35.5602 63.9545V60.5455H34.7221V64.0114C34.7221 65.4034 35.4608 66.071 36.4835 66.071C37.3074 66.071 37.8471 65.6307 38.1028 65.0767H38.1596V66H38.9977V60.5455H38.1596V63.7699ZM41.3707 62.7188C41.3707 61.767 41.9602 61.2273 42.7628 61.2273C43.5405 61.2273 44.0128 61.7351 44.0128 62.5909V66H44.8509V62.5341C44.8509 61.142 44.1087 60.4744 43.0043 60.4744C42.1804 60.4744 41.669 60.8438 41.4134 61.3977H41.3423V60.5455H40.5327V66H41.3707V62.7188ZM47.2203 62.7188C47.2203 61.767 47.8098 61.2273 48.6124 61.2273C49.3901 61.2273 49.8624 61.7351 49.8624 62.5909V66H50.7005V62.5341C50.7005 61.142 49.9583 60.4744 48.8539 60.4744C48.03 60.4744 47.5186 60.8438 47.263 61.3977H47.1919V60.5455H46.3823V66H47.2203V62.7188ZM52.2319 66H53.07V60.5455H52.2319V66ZM52.658 59.6364C52.9847 59.6364 53.2546 59.3807 53.2546 59.0682C53.2546 58.7557 52.9847 58.5 52.658 58.5C52.3313 58.5 52.0614 58.7557 52.0614 59.0682C52.0614 59.3807 52.3313 59.6364 52.658 59.6364ZM55.443 62.7188C55.443 61.767 56.0325 61.2273 56.835 61.2273C57.6127 61.2273 58.085 61.7351 58.085 62.5909V66H58.9231V62.5341C58.9231 61.142 58.1809 60.4744 57.0765 60.4744C56.2527 60.4744 55.7413 60.8438 55.4856 61.3977H55.4146V60.5455H54.6049V66H55.443V62.7188ZM62.6562 68.1591C63.9631 68.1591 65.0142 67.5625 65.0142 66.1562V60.5455H64.2045V61.4119H64.1193C63.9347 61.1278 63.5938 60.4744 62.5284 60.4744C61.1506 60.4744 60.1989 61.5682 60.1989 63.2443C60.1989 64.9489 61.1932 65.9148 62.5142 65.9148C63.5795 65.9148 63.9205 65.2898 64.1051 64.9915H64.1761V66.0994C64.1761 67.0085 63.5369 67.4205 62.6562 67.4205C61.6655 67.4205 61.3175 66.8984 61.0938 66.5966L60.4261 67.0653C60.767 67.6371 61.4382 68.1591 62.6562 68.1591ZM62.6278 65.1619C61.5767 65.1619 61.0369 64.3665 61.0369 63.2301C61.0369 62.1222 61.5625 61.2273 62.6278 61.2273C63.6506 61.2273 64.1903 62.0511 64.1903 63.2301C64.1903 64.4375 63.6364 65.1619 62.6278 65.1619ZM71.733 60.5455H70.5682V59.2386H69.7301V60.5455H68.9062V61.2557H69.7301V64.6648C69.7301 65.6165 70.4972 66.071 71.2074 66.071C71.5199 66.071 71.7188 66.0142 71.8324 65.9716L71.6619 65.2188C71.5909 65.233 71.4773 65.2614 71.2926 65.2614C70.9233 65.2614 70.5682 65.1477 70.5682 64.4375V61.2557H71.733V60.5455ZM72.9936 66H73.8317V60.5455H72.9936V66ZM73.4197 59.6364C73.7464 59.6364 74.0163 59.3807 74.0163 59.0682C74.0163 58.7557 73.7464 58.5 73.4197 58.5C73.093 58.5 72.8232 58.7557 72.8232 59.0682C72.8232 59.3807 73.093 59.6364 73.4197 59.6364ZM75.3667 66H76.2047V62.5909C76.2047 61.7919 76.7871 61.2273 77.4405 61.2273C78.0762 61.2273 78.5201 61.6428 78.5201 62.2642V66H79.3723V62.4489C79.3723 61.7457 79.8127 61.2273 80.5797 61.2273C81.1763 61.2273 81.6877 61.5433 81.6877 62.3494V66H82.5257V62.3494C82.5257 61.0675 81.8368 60.4744 80.8638 60.4744C80.0826 60.4744 79.5108 60.8331 79.2303 61.3977H79.1735C78.9036 60.8153 78.4277 60.4744 77.7104 60.4744C77.0002 60.4744 76.4746 60.8153 76.2473 61.3977H76.1763V60.5455H75.3667V66ZM86.345 66.1136C87.4529 66.1136 88.2626 65.5597 88.5183 64.7358L87.7086 64.5085C87.4956 65.0767 87.002 65.3608 86.345 65.3608C85.3613 65.3608 84.6831 64.7251 84.644 63.5568H88.6035V63.2017C88.6035 61.1705 87.3961 60.4744 86.2598 60.4744C84.7825 60.4744 83.8024 61.6392 83.8024 63.3153C83.8024 64.9915 84.7683 66.1136 86.345 66.1136ZM84.644 62.8324C84.7008 61.9837 85.301 61.2273 86.2598 61.2273C87.1689 61.2273 87.7512 61.9091 87.7512 62.8324H84.644Z" fill="white"/>
<rect x="96" y="84" width="4" height="96" transform="rotate(90 96 84)" fill="#EDBB99"/>
<rect x="96" y="84" width="4" height="96" transform="rotate(90 96 84)" fill="url(#paint0_linear)"/>
<defs>
<linearGradient id="paint0_linear" x1="98" y1="84" x2="98" y2="180" gradientUnits="userSpaceOnUse">
<stop stop-color="#FDA472"/>
<stop offset="1" stop-color="#F7B78F"/>
</linearGradient>
</defs>
</svg>
