<svg width="96" height="88" viewBox="0 0 96 88" fill="none" xmlns="http://www.w3.org/2000/svg">
<path d="M11.723 47.358C17.3224 47.358 21.4006 44.1491 21.3878 39.7259C21.4006 36.4531 19.3551 34.1009 15.6861 33.5767V33.3722C18.5241 32.7585 20.429 30.6491 20.4162 27.7088C20.429 23.7202 17.0284 20.4602 11.7997 20.4602C6.71165 20.4602 2.77415 23.4901 2.67188 27.875H7.2358C7.3125 25.6761 9.35795 24.3082 11.7741 24.3082C14.2159 24.3082 15.8395 25.7912 15.8267 27.9901C15.8395 30.2784 13.9474 31.7997 11.2372 31.7997H8.9233V35.456H11.2372C14.5483 35.456 16.517 37.1179 16.5043 39.483C16.517 41.7969 14.5099 43.3821 11.7102 43.3821C9.0767 43.3821 7.04403 42.0142 6.92898 39.8793H2.12216C2.25 44.3026 6.20028 47.358 11.723 47.358ZM27.9045 47.2812C29.413 47.2812 30.7042 46.0284 30.717 44.4688C30.7042 42.9347 29.413 41.6818 27.9045 41.6818C26.3448 41.6818 25.0792 42.9347 25.092 44.4688C25.0792 46.0284 26.3448 47.2812 27.9045 47.2812ZM35.4439 47H53.3928V43.0369H41.9893V42.858L46.5021 38.2685C51.5902 33.3849 52.9965 31.0071 52.9965 28.054C52.9965 23.669 49.4297 20.4602 44.1626 20.4602C38.9723 20.4602 35.2905 23.6818 35.2905 28.6548H39.8033C39.8033 25.983 41.4908 24.3082 44.0987 24.3082C46.5916 24.3082 48.4453 25.8295 48.4453 28.2969C48.4453 30.483 47.1158 32.0426 44.5334 34.6634L35.4439 43.5739V47ZM61.6385 27.3636H56.7294L62.5589 37.1818L56.576 47H61.4851L65.6016 39.9304L69.7564 47H74.6271L68.6058 37.1818L74.5249 27.3636H69.6286L65.6016 34.6122L61.6385 27.3636Z" fill="white"/>
<path d="M4.20455 7.76989C4.20455 8.79261 3.4233 9.26136 2.7983 9.26136C2.10227 9.26136 1.60511 8.75 1.60511 7.95455V4.54545H0.767045V8.01136C0.767045 9.40341 1.50568 10.071 2.52841 10.071C3.35227 10.071 3.89205 9.63068 4.14773 9.0767H4.20455V10H5.04261V4.54545H4.20455V7.76989ZM6.57759 12.0455H7.41566V9.16193H7.48668C7.67134 9.46023 8.02646 10.1136 9.07759 10.1136C10.4412 10.1136 11.3929 9.01989 11.3929 7.28693C11.3929 5.56818 10.4412 4.47443 9.06339 4.47443C7.99805 4.47443 7.67134 5.12784 7.48668 5.41193H7.38725V4.54545H6.57759V12.0455ZM7.40146 7.27273C7.40146 6.05114 7.94123 5.22727 8.96396 5.22727C10.0293 5.22727 10.5549 6.12216 10.5549 7.27273C10.5549 8.4375 10.0151 9.3608 8.96396 9.3608C7.95543 9.3608 7.40146 8.50852 7.40146 7.27273ZM17.856 4.54545H16.6912V3.23864H15.8532V4.54545H15.0293V5.25568H15.8532V8.66477C15.8532 9.61648 16.6202 10.071 17.3304 10.071C17.6429 10.071 17.8418 10.0142 17.9554 9.97159L17.785 9.21875C17.714 9.23295 17.6003 9.26136 17.4157 9.26136C17.0463 9.26136 16.6912 9.14773 16.6912 8.4375V5.25568H17.856V4.54545ZM21.274 10.1136C22.7512 10.1136 23.7456 8.99148 23.7456 7.30114C23.7456 5.59659 22.7512 4.47443 21.274 4.47443C19.7967 4.47443 18.8024 5.59659 18.8024 7.30114C18.8024 8.99148 19.7967 10.1136 21.274 10.1136ZM21.274 9.3608C20.1518 9.3608 19.6404 8.39489 19.6404 7.30114C19.6404 6.20739 20.1518 5.22727 21.274 5.22727C22.3961 5.22727 22.9075 6.20739 22.9075 7.30114C22.9075 8.39489 22.3961 9.3608 21.274 9.3608Z" fill="white"/>
<path d="M3.19602 60.5455H1.97443V59.9915C1.97443 59.4517 2.2017 59.1676 2.75568 59.1676C2.99716 59.1676 3.1392 59.2244 3.22443 59.2528L3.46591 58.5284C3.33807 58.4716 3.08239 58.3864 2.67045 58.3864C1.8892 58.3864 1.13636 58.8551 1.13636 59.7926V60.5455H0.255682V61.2557H1.13636V66H1.97443V61.2557H3.19602V60.5455ZM5.81942 66.1278C6.77113 66.1278 7.26829 65.6165 7.43874 65.2614H7.48136V66H8.31942V62.4062C8.31942 60.6733 6.9984 60.4744 6.30238 60.4744C5.47852 60.4744 4.54102 60.7585 4.11488 61.7528L4.91033 62.0369C5.09499 61.6392 5.53178 61.2131 6.33079 61.2131C7.10138 61.2131 7.48136 61.6214 7.48136 62.321V62.3494C7.48136 62.7543 7.06942 62.7188 6.07511 62.8466C5.06303 62.978 3.95863 63.2017 3.95863 64.4517C3.95863 65.517 4.78249 66.1278 5.81942 66.1278ZM5.94727 65.375C5.27965 65.375 4.7967 65.0767 4.7967 64.4943C4.7967 63.8551 5.37908 63.6562 6.03249 63.571C6.38761 63.5284 7.33931 63.429 7.48136 63.2585V64.0256C7.48136 64.7074 6.94158 65.375 5.94727 65.375ZM13.7127 61.767C13.4499 60.9929 12.8604 60.4744 11.7809 60.4744C10.6303 60.4744 9.77805 61.1278 9.77805 62.0511C9.77805 62.804 10.2255 63.3082 11.2269 63.5426L12.136 63.7557C12.6864 63.8835 12.9457 64.1463 12.9457 64.5227C12.9457 64.9915 12.4485 65.375 11.6673 65.375C10.9819 65.375 10.5522 65.0803 10.4031 64.4943L9.6076 64.6932C9.80291 65.62 10.5664 66.1136 11.6815 66.1136C12.9492 66.1136 13.8121 65.4212 13.8121 64.4801C13.8121 63.7202 13.3363 63.2408 12.3633 63.0028L11.5536 62.804C10.9073 62.6442 10.6161 62.4276 10.6161 62.0085C10.6161 61.5398 11.1133 61.1989 11.7809 61.1989C12.5124 61.1989 12.8143 61.6037 12.9599 61.9801L13.7127 61.767ZM17.4458 60.5455H16.2811V59.2386H15.443V60.5455H14.6191V61.2557H15.443V64.6648C15.443 65.6165 16.21 66.071 16.9203 66.071C17.2328 66.071 17.4316 66.0142 17.5453 65.9716L17.3748 65.2188C17.3038 65.233 17.1902 65.2614 17.0055 65.2614C16.6362 65.2614 16.2811 65.1477 16.2811 64.4375V61.2557H17.4458V60.5455ZM20.9348 66.1136C22.0428 66.1136 22.8525 65.5597 23.1081 64.7358L22.2985 64.5085C22.0854 65.0767 21.5918 65.3608 20.9348 65.3608C19.9512 65.3608 19.2729 64.7251 19.2338 63.5568H23.1934V63.2017C23.1934 61.1705 21.986 60.4744 20.8496 60.4744C19.3723 60.4744 18.3922 61.6392 18.3922 63.3153C18.3922 64.9915 19.3581 66.1136 20.9348 66.1136ZM19.2338 62.8324C19.2907 61.9837 19.8908 61.2273 20.8496 61.2273C21.7587 61.2273 22.3411 61.9091 22.3411 62.8324H19.2338ZM24.4682 66H25.3063V62.5483C25.3063 61.8097 25.8887 61.2699 26.6841 61.2699C26.9078 61.2699 27.1387 61.3125 27.1955 61.3267V60.4744C27.0996 60.4673 26.8794 60.4602 26.7551 60.4602C26.1017 60.4602 25.5336 60.8295 25.3347 61.3693H25.2779V60.5455H24.4682V66ZM31.0014 66H31.8395V62.5483C31.8395 61.8097 32.4219 61.2699 33.2173 61.2699C33.4411 61.2699 33.6719 61.3125 33.7287 61.3267V60.4744C33.6328 60.4673 33.4126 60.4602 33.2884 60.4602C32.6349 60.4602 32.0668 60.8295 31.8679 61.3693H31.8111V60.5455H31.0014V66ZM36.843 66.1136C37.951 66.1136 38.7607 65.5597 39.0163 64.7358L38.2067 64.5085C37.9936 65.0767 37.5 65.3608 36.843 65.3608C35.8594 65.3608 35.1811 64.7251 35.142 63.5568H39.1016V63.2017C39.1016 61.1705 37.8942 60.4744 36.7578 60.4744C35.2805 60.4744 34.3004 61.6392 34.3004 63.3153C34.3004 64.9915 35.2663 66.1136 36.843 66.1136ZM35.142 62.8324C35.1989 61.9837 35.799 61.2273 36.7578 61.2273C37.6669 61.2273 38.2493 61.9091 38.2493 62.8324H35.142ZM41.2145 62.7188C41.2145 61.767 41.804 61.2273 42.6065 61.2273C43.3842 61.2273 43.8565 61.7351 43.8565 62.5909V66H44.6946V62.5341C44.6946 61.142 43.9524 60.4744 42.848 60.4744C42.0241 60.4744 41.5128 60.8438 41.2571 61.3977H41.1861V60.5455H40.3764V66H41.2145V62.7188ZM48.2857 66.1136C49.3368 66.1136 49.6919 65.4602 49.8766 65.1619H49.976V66H50.7857V58.7273H49.9476V61.4119H49.8766C49.6919 61.1278 49.3652 60.4744 48.2999 60.4744C46.9221 60.4744 45.9703 61.5682 45.9703 63.2869C45.9703 65.0199 46.9221 66.1136 48.2857 66.1136ZM48.3993 65.3608C47.3482 65.3608 46.8084 64.4375 46.8084 63.2727C46.8084 62.1222 47.334 61.2273 48.3993 61.2273C49.4221 61.2273 49.9618 62.0511 49.9618 63.2727C49.9618 64.5085 49.4078 65.3608 48.3993 65.3608ZM54.7239 66.1136C55.8319 66.1136 56.6415 65.5597 56.8972 64.7358L56.0875 64.5085C55.8745 65.0767 55.3809 65.3608 54.7239 65.3608C53.7402 65.3608 53.062 64.7251 53.0229 63.5568H56.9824V63.2017C56.9824 61.1705 55.775 60.4744 54.6387 60.4744C53.1614 60.4744 52.1813 61.6392 52.1813 63.3153C52.1813 64.9915 53.1472 66.1136 54.7239 66.1136ZM53.0229 62.8324C53.0797 61.9837 53.6799 61.2273 54.6387 61.2273C55.5478 61.2273 56.1301 61.9091 56.1301 62.8324H53.0229ZM58.2573 66H59.0953V62.5483C59.0953 61.8097 59.6777 61.2699 60.4732 61.2699C60.6969 61.2699 60.9277 61.3125 60.9846 61.3267V60.4744C60.8887 60.4673 60.6685 60.4602 60.5442 60.4602C59.8908 60.4602 59.3226 60.8295 59.1238 61.3693H59.0669V60.5455H58.2573V66Z" fill="white"/>
<rect x="96" y="84" width="4" height="96" transform="rotate(90 96 84)" fill="#EDBB99"/>
<rect x="96" y="84" width="4" height="96" transform="rotate(90 96 84)" fill="url(#paint0_linear)"/>
<defs>
<linearGradient id="paint0_linear" x1="98" y1="84" x2="98" y2="180" gradientUnits="userSpaceOnUse">
<stop stop-color="#FDA472"/>
<stop offset="1" stop-color="#F7B78F"/>
</linearGradient>
</defs>
</svg>
