<svg width="96" height="88" viewBox="0 0 96 88" fill="none" xmlns="http://www.w3.org/2000/svg">
<path d="M11.6335 47.358C17.2969 47.358 21.3494 44.2386 21.3622 39.9815C21.3494 36.7088 18.9332 33.973 15.8906 33.4616V33.2827C18.5369 32.6946 20.3778 30.3168 20.3906 27.4787C20.3778 23.4517 16.6705 20.4602 11.6335 20.4602C6.55824 20.4602 2.85085 23.4389 2.86364 27.4787C2.85085 30.3168 4.66619 32.6946 7.36364 33.2827V33.4616C4.26989 33.973 1.87926 36.7088 1.89205 39.9815C1.87926 44.2386 5.91903 47.358 11.6335 47.358ZM11.6335 43.7017C8.66761 43.7017 6.75 42.0653 6.77557 39.6491C6.75 37.1435 8.80824 35.3665 11.6335 35.3665C14.4205 35.3665 16.4659 37.1562 16.4915 39.6491C16.4659 42.0653 14.5611 43.7017 11.6335 43.7017ZM11.6335 31.7741C9.20455 31.7741 7.46591 30.2017 7.49148 27.9261C7.46591 25.6761 9.15341 24.1676 11.6335 24.1676C14.0753 24.1676 15.75 25.6761 15.7756 27.9261C15.75 30.2145 14.0241 31.7741 11.6335 31.7741ZM33.3377 42.8068H37.3519V35.9673H44.1914V31.9531H37.3519V25.1136H33.3377V31.9531H26.4982V35.9673H33.3377V42.8068Z" fill="white"/>
<path d="M4.20455 7.76989C4.20455 8.79261 3.4233 9.26136 2.7983 9.26136C2.10227 9.26136 1.60511 8.75 1.60511 7.95455V4.54545H0.767045V8.01136C0.767045 9.40341 1.50568 10.071 2.52841 10.071C3.35227 10.071 3.89205 9.63068 4.14773 9.0767H4.20455V10H5.04261V4.54545H4.20455V7.76989ZM6.57759 12.0455H7.41566V9.16193H7.48668C7.67134 9.46023 8.02646 10.1136 9.07759 10.1136C10.4412 10.1136 11.3929 9.01989 11.3929 7.28693C11.3929 5.56818 10.4412 4.47443 9.06339 4.47443C7.99805 4.47443 7.67134 5.12784 7.48668 5.41193H7.38725V4.54545H6.57759V12.0455ZM7.40146 7.27273C7.40146 6.05114 7.94123 5.22727 8.96396 5.22727C10.0293 5.22727 10.5549 6.12216 10.5549 7.27273C10.5549 8.4375 10.0151 9.3608 8.96396 9.3608C7.95543 9.3608 7.40146 8.50852 7.40146 7.27273ZM17.856 4.54545H16.6912V3.23864H15.8532V4.54545H15.0293V5.25568H15.8532V8.66477C15.8532 9.61648 16.6202 10.071 17.3304 10.071C17.6429 10.071 17.8418 10.0142 17.9554 9.97159L17.785 9.21875C17.714 9.23295 17.6003 9.26136 17.4157 9.26136C17.0463 9.26136 16.6912 9.14773 16.6912 8.4375V5.25568H17.856V4.54545ZM21.274 10.1136C22.7512 10.1136 23.7456 8.99148 23.7456 7.30114C23.7456 5.59659 22.7512 4.47443 21.274 4.47443C19.7967 4.47443 18.8024 5.59659 18.8024 7.30114C18.8024 8.99148 19.7967 10.1136 21.274 10.1136ZM21.274 9.3608C20.1518 9.3608 19.6404 8.39489 19.6404 7.30114C19.6404 6.20739 20.1518 5.22727 21.274 5.22727C22.3961 5.22727 22.9075 6.20739 22.9075 7.30114C22.9075 8.39489 22.3961 9.3608 21.274 9.3608Z" fill="white"/>
<path d="M4.63068 61.767C4.3679 60.9929 3.77841 60.4744 2.69886 60.4744C1.5483 60.4744 0.696023 61.1278 0.696023 62.0511C0.696023 62.804 1.14347 63.3082 2.14489 63.5426L3.05398 63.7557C3.6044 63.8835 3.86364 64.1463 3.86364 64.5227C3.86364 64.9915 3.36648 65.375 2.58523 65.375C1.89986 65.375 1.47017 65.0803 1.32102 64.4943L0.525568 64.6932C0.720881 65.62 1.48438 66.1136 2.59943 66.1136C3.86719 66.1136 4.73011 65.4212 4.73011 64.4801C4.73011 63.7202 4.25426 63.2408 3.28125 63.0028L2.47159 62.804C1.82528 62.6442 1.53409 62.4276 1.53409 62.0085C1.53409 61.5398 2.03125 61.1989 2.69886 61.1989C3.4304 61.1989 3.73224 61.6037 3.87784 61.9801L4.63068 61.767ZM8.36381 60.5455H7.19904V59.2386H6.36097V60.5455H5.53711V61.2557H6.36097V64.6648C6.36097 65.6165 7.12802 66.071 7.83825 66.071C8.15075 66.071 8.34961 66.0142 8.46325 65.9716L8.29279 65.2188C8.22177 65.233 8.10813 65.2614 7.92347 65.2614C7.55415 65.2614 7.19904 65.1477 7.19904 64.4375V61.2557H8.36381V60.5455ZM9.62447 66H10.4625V62.5483C10.4625 61.8097 11.0449 61.2699 11.8404 61.2699C12.0641 61.2699 12.2949 61.3125 12.3517 61.3267V60.4744C12.2559 60.4673 12.0357 60.4602 11.9114 60.4602C11.258 60.4602 10.6898 60.8295 10.4909 61.3693H10.4341V60.5455H9.62447V66ZM15.4661 66.1136C16.574 66.1136 17.3837 65.5597 17.6394 64.7358L16.8297 64.5085C16.6167 65.0767 16.123 65.3608 15.4661 65.3608C14.4824 65.3608 13.8042 64.7251 13.7651 63.5568H17.7246V63.2017C17.7246 61.1705 16.5172 60.4744 15.3809 60.4744C13.9036 60.4744 12.9235 61.6392 12.9235 63.3153C12.9235 64.9915 13.8894 66.1136 15.4661 66.1136ZM13.7651 62.8324C13.8219 61.9837 14.4221 61.2273 15.3809 61.2273C16.29 61.2273 16.8723 61.9091 16.8723 62.8324H13.7651ZM20.6046 66.1278C21.5563 66.1278 22.0534 65.6165 22.2239 65.2614H22.2665V66H23.1046V62.4062C23.1046 60.6733 21.7836 60.4744 21.0875 60.4744C20.2637 60.4744 19.3262 60.7585 18.9 61.7528L19.6955 62.0369C19.8801 61.6392 20.3169 61.2131 21.1159 61.2131C21.8865 61.2131 22.2665 61.6214 22.2665 62.321V62.3494C22.2665 62.7543 21.8546 62.7188 20.8603 62.8466C19.8482 62.978 18.7438 63.2017 18.7438 64.4517C18.7438 65.517 19.5676 66.1278 20.6046 66.1278ZM20.7324 65.375C20.0648 65.375 19.5819 65.0767 19.5819 64.4943C19.5819 63.8551 20.1642 63.6562 20.8176 63.571C21.1728 63.5284 22.1245 63.429 22.2665 63.2585V64.0256C22.2665 64.7074 21.7267 65.375 20.7324 65.375ZM24.6342 66H25.4723V62.5909C25.4723 61.7919 26.0547 61.2273 26.7081 61.2273C27.3438 61.2273 27.7876 61.6428 27.7876 62.2642V66H28.6399V62.4489C28.6399 61.7457 29.0803 61.2273 29.8473 61.2273C30.4439 61.2273 30.9553 61.5433 30.9553 62.3494V66H31.7933V62.3494C31.7933 61.0675 31.1044 60.4744 30.1314 60.4744C29.3501 60.4744 28.7784 60.8331 28.4979 61.3977H28.4411C28.1712 60.8153 27.6953 60.4744 26.978 60.4744C26.2678 60.4744 25.7422 60.8153 25.5149 61.3977H25.4439V60.5455H24.6342V66ZM37.1893 61.767C36.9265 60.9929 36.337 60.4744 35.2575 60.4744C34.1069 60.4744 33.2546 61.1278 33.2546 62.0511C33.2546 62.804 33.7021 63.3082 34.7035 63.5426L35.6126 63.7557C36.163 63.8835 36.4222 64.1463 36.4222 64.5227C36.4222 64.9915 35.9251 65.375 35.1438 65.375C34.4585 65.375 34.0288 65.0803 33.8796 64.4943L33.0842 64.6932C33.2795 65.62 34.043 66.1136 35.158 66.1136C36.4258 66.1136 37.2887 65.4212 37.2887 64.4801C37.2887 63.7202 36.8129 63.2408 35.8398 63.0028L35.0302 62.804C34.3839 62.6442 34.0927 62.4276 34.0927 62.0085C34.0927 61.5398 34.5898 61.1989 35.2575 61.1989C35.989 61.1989 36.2908 61.6037 36.4364 61.9801L37.1893 61.767ZM43.5787 66.1136C45.0559 66.1136 46.0502 64.9915 46.0502 63.3011C46.0502 61.5966 45.0559 60.4744 43.5787 60.4744C42.1014 60.4744 41.1071 61.5966 41.1071 63.3011C41.1071 64.9915 42.1014 66.1136 43.5787 66.1136ZM43.5787 65.3608C42.4565 65.3608 41.9451 64.3949 41.9451 63.3011C41.9451 62.2074 42.4565 61.2273 43.5787 61.2273C44.7008 61.2273 45.2122 62.2074 45.2122 63.3011C45.2122 64.3949 44.7008 65.3608 43.5787 65.3608ZM49.7585 60.5455H48.5369V59.9915C48.5369 59.4517 48.7642 59.1676 49.3182 59.1676C49.5597 59.1676 49.7017 59.2244 49.7869 59.2528L50.0284 58.5284C49.9006 58.4716 49.6449 58.3864 49.233 58.3864C48.4517 58.3864 47.6989 58.8551 47.6989 59.7926V60.5455H46.8182V61.2557H47.6989V66H48.5369V61.2557H49.7585V60.5455ZM53.5609 64.5085H56.9842V66H57.8223V64.5085H58.8166V63.7273H57.8223V58.7273H56.7569L53.5609 63.7841V64.5085ZM56.9842 63.7273H54.5126V63.6705L56.9274 59.8494H56.9842V63.7273ZM60.1616 66H60.9996V63.9581L61.5856 63.4148L63.6275 66H64.6928L62.2177 62.875L64.5224 60.5455H63.4854L61.0991 62.9744H60.9996V58.7273H60.1616V66ZM72.8738 60.5455H71.9647L70.459 64.892H70.4022L68.8965 60.5455H67.9874L70.0044 66H70.8567L72.8738 60.5455ZM73.9799 66H74.818V60.5455H73.9799V66ZM74.4061 59.6364C74.7328 59.6364 75.0027 59.3807 75.0027 59.0682C75.0027 58.7557 74.7328 58.5 74.4061 58.5C74.0794 58.5 73.8095 58.7557 73.8095 59.0682C73.8095 59.3807 74.0794 59.6364 74.4061 59.6364ZM78.4126 66.1136C79.4638 66.1136 79.8189 65.4602 80.0036 65.1619H80.103V66H80.9126V58.7273H80.0746V61.4119H80.0036C79.8189 61.1278 79.4922 60.4744 78.4268 60.4744C77.049 60.4744 76.0973 61.5682 76.0973 63.2869C76.0973 65.0199 77.049 66.1136 78.4126 66.1136ZM78.5263 65.3608C77.4751 65.3608 76.9354 64.4375 76.9354 63.2727C76.9354 62.1222 77.4609 61.2273 78.5263 61.2273C79.549 61.2273 80.0888 62.0511 80.0888 63.2727C80.0888 64.5085 79.5348 65.3608 78.5263 65.3608ZM84.8509 66.1136C85.9588 66.1136 86.7685 65.5597 87.0241 64.7358L86.2145 64.5085C86.0014 65.0767 85.5078 65.3608 84.8509 65.3608C83.8672 65.3608 83.1889 64.7251 83.1499 63.5568H87.1094V63.2017C87.1094 61.1705 85.902 60.4744 84.7656 60.4744C83.2884 60.4744 82.3082 61.6392 82.3082 63.3153C82.3082 64.9915 83.2741 66.1136 84.8509 66.1136ZM83.1499 62.8324C83.2067 61.9837 83.8068 61.2273 84.7656 61.2273C85.6747 61.2273 86.2571 61.9091 86.2571 62.8324H83.1499ZM90.6001 66.1136C92.0774 66.1136 93.0717 64.9915 93.0717 63.3011C93.0717 61.5966 92.0774 60.4744 90.6001 60.4744C89.1229 60.4744 88.1286 61.5966 88.1286 63.3011C88.1286 64.9915 89.1229 66.1136 90.6001 66.1136ZM90.6001 65.3608C89.478 65.3608 88.9666 64.3949 88.9666 63.3011C88.9666 62.2074 89.478 61.2273 90.6001 61.2273C91.7223 61.2273 92.2337 62.2074 92.2337 63.3011C92.2337 64.3949 91.7223 65.3608 90.6001 65.3608Z" fill="white"/>
<rect x="96" y="84" width="4" height="96" transform="rotate(90 96 84)" fill="#EDBB99"/>
<rect x="96" y="84" width="4" height="96" transform="rotate(90 96 84)" fill="url(#paint0_linear)"/>
<defs>
<linearGradient id="paint0_linear" x1="98" y1="84" x2="98" y2="180" gradientUnits="userSpaceOnUse">
<stop stop-color="#FDA472"/>
<stop offset="1" stop-color="#F7B78F"/>
</linearGradient>
</defs>
</svg>
