<svg width="342" height="48" viewBox="0 0 342 48" fill="none" xmlns="http://www.w3.org/2000/svg">
<g clip-path="url(#clip0)">
<path d="M118.161 24.6779L109.494 10.2629L105.924 12.4109L100.254 15.8189L105.924 25.2599L113.409 37.7369H118.161H126L118.161 24.6779Z" fill="#B6B6B6"/>
<path d="M105.924 32.601L98.3731 20.037L89.4271 25.422L89.1211 25.602L89.4271 26.109L96.4141 37.737H105.924H108.996L105.924 32.601Z" fill="#B6B6B6"/>
<path d="M89.427 33.441L87.249 29.823L78 35.379L79.413 37.737H89.427H92.004L89.427 33.441Z" fill="#B6B6B6"/>
</g>
<g clip-path="url(#clip1)">
<path d="M320.977 21.1677L317.995 21.9507L309.721 24.1167C306.799 24.8397 304.243 25.8026 301.78 24.9597C298.432 23.5137 298.492 19.7518 300.988 15.7499C296.575 19.3918 288.634 31.0375 299.374 32.2135C300.742 32.3935 303.178 31.9135 305.824 30.8005L317.995 25.8056L342 15.9899L320.977 21.1677Z" fill="#B6B6B6"/>
</g>
<path fill-rule="evenodd" clip-rule="evenodd" d="M173.522 10.5014L173.277 10.5869L173.013 10.746L172.824 10.9218L172.722 11.1429L172.658 11.4258L172.636 11.6721L172.658 11.9149L172.722 12.1975L172.824 12.4152L172.976 12.5509L173.187 12.6697L173.379 12.7454L173.63 12.782L173.928 12.7837L174.174 12.7454L174.407 12.6348L174.655 12.4607L174.827 12.2802L174.919 12.0421L174.968 11.7426L174.97 11.4846L174.919 11.247L174.823 10.9793L174.692 10.7868L174.39 10.6329L173.984 10.5505L173.522 10.5014ZM164.367 13.6306L164.105 13.6341L163.813 13.6386L163.496 13.6438L163.159 13.6498L162.807 13.6563L162.445 13.6632L162.079 13.6705L161.712 13.6784L161.351 13.6864L160.999 13.6946L160.662 13.7031L160.345 13.7113L160.053 13.7195L159.79 13.7275L159.513 13.7384L159.199 13.7576L158.856 13.7828L158.492 13.8112L158.114 13.8405L157.729 13.8684L157.344 13.8923L156.966 13.9095L156.603 13.9177L156.263 13.9145L155.952 13.8971L155.678 13.8632L155.41 13.7828L155.1 13.6558L154.837 13.5405L154.673 13.4598L154.481 13.356L154.327 13.2553L154.225 13.155L154.109 13.028L153.997 12.9326L153.731 12.8089L153.398 12.7088L153.112 12.7L152.734 12.9062L152.357 13.2641L152.129 13.6306L152.118 14.0627L152.24 14.5764L152.414 14.9885L152.635 15.2595L152.953 15.5354L153.254 15.7314L153.507 15.8267L153.822 15.8987L154.095 15.9191L154.467 15.8305L154.892 15.6701L155.258 15.5513L155.543 15.4975L155.882 15.4457L156.254 15.3977L156.637 15.3541L157.011 15.317L157.354 15.2873L157.644 15.2664L157.899 15.252L158.18 15.2393L158.484 15.2283L158.807 15.2189L159.145 15.2107L159.493 15.2039L159.85 15.1984L160.21 15.1937L160.571 15.1897L160.927 15.1867L161.276 15.1843L161.614 15.1823L161.937 15.1808L162.24 15.1795L162.522 15.1783L162.777 15.177L163.207 15.1735L163.71 15.1753L164.135 15.177L164.102 15.4375L164.059 15.7189L164.006 16.0185L163.945 16.333L163.876 16.6597L163.801 16.9956L163.722 17.3378L163.64 17.6834L163.556 18.0293L163.47 18.3725L163.386 18.7099L163.304 19.0388L163.224 19.3561L163.149 19.6591L163.081 19.9445L163.018 20.2095L162.965 20.4513L162.923 20.6495L162.876 20.8711L162.823 21.1149L162.766 21.3794L162.704 21.6632L162.639 21.9648L162.569 22.2831L162.497 22.6165L162.421 22.9639L162.342 23.3237L162.262 23.6948L162.179 24.0753L162.094 24.464L162.009 24.8599L161.922 25.2611L161.411 25.2937L160.929 25.3228L160.478 25.3487L160.055 25.3707L159.66 25.3901L159.292 25.406L158.951 25.4197L158.636 25.4304L158.345 25.4391L158.078 25.4454L157.835 25.4493L157.615 25.4518L157.417 25.4523L157.239 25.4513L157.082 25.4488L156.838 25.4591L156.552 25.464L156.332 25.4038L156.309 25.3654L156.29 25.3099L156.287 25.2613L156.329 25.1762L156.403 25.089L156.475 25.0288L156.731 24.889L157.049 24.763L157.409 24.6492L157.793 24.5466L158.181 24.4548L158.555 24.3726L158.895 24.2991L159.184 24.2334L159.505 24.1629L159.885 24.0909L160.212 24.0456L160.374 24.0491L160.567 24.0573L160.73 24.0456L161.036 23.9483L161.384 23.7926L161.66 23.6253L161.837 23.4559L162.018 23.2316L162.125 23.0174L162.13 22.8264L162.09 22.6006L162.035 22.4096L161.943 22.2036L161.807 21.9728L161.66 21.8017L161.481 21.7101L161.251 21.6433L161.052 21.6217L160.707 21.7123L160.314 21.8911L159.979 22.0418L159.698 22.1307L159.363 22.2285L158.998 22.3321L158.621 22.4382L158.256 22.5435L157.924 22.6451L157.645 22.7398L157.396 22.8314L157.116 22.9352L156.812 23.05L156.489 23.1741L156.153 23.306L155.81 23.4445L155.467 23.5877L155.129 23.7343L154.801 23.8828L154.491 24.0317L154.204 24.1793L153.945 24.3248L153.721 24.4657L153.394 24.709L153.044 25.0305L152.836 25.3587L152.832 25.613L152.909 25.912L153.024 26.1464L153.253 26.3505L153.575 26.5348L153.864 26.6638L154.183 26.7572L154.577 26.8379L154.998 26.9046L155.399 26.9547L155.732 26.9868L156.004 27.0037L156.313 27.0149L156.653 27.0202L157.013 27.0212L157.386 27.0177L157.763 27.0105L158.136 27.0002L158.497 26.9875L158.836 26.9733L159.145 26.9579L159.417 26.9415L159.725 26.9268L160.104 26.9113L160.518 26.8976L160.931 26.8894L161.308 26.8889L161.389 26.9298L161.422 27.0085L161.428 27.0839L161.416 27.2445L161.391 27.4328L161.355 27.6467L161.308 27.8855L161.252 28.1462L161.186 28.4279L161.112 28.7279L161.031 29.0449L160.944 29.3771L160.851 29.723L160.754 30.0801L160.653 30.4469L160.549 30.8209L160.443 31.2012L160.336 31.5854L160.228 31.9722L160.122 32.3594L159.936 32.7563L159.695 33.2135L159.559 33.6202L159.583 34.0405L159.698 34.5211L159.881 34.881L160.146 35.0829L160.515 35.258L160.907 35.3855L161.24 35.4437L161.65 35.4081L162.125 35.2841L162.5 35.1133L162.735 34.8959L162.969 34.5928L163.153 34.3254L163.225 34.1882L163.304 34.0276L163.386 33.9051L163.477 33.8393L163.683 33.7178L164.071 33.483L164.706 33.0798L164.679 33.4374L164.629 33.8079L164.602 34.0405L164.586 34.1496L164.551 34.2716L164.511 34.3707L164.376 34.5615L164.202 34.7779L164.091 34.9788L164.07 35.194L164.095 35.4552L164.135 35.6761L164.194 35.9256L164.289 36.212L164.413 36.4264L164.639 36.5718L164.941 36.6886L165.207 36.7489L165.541 36.7641L165.932 36.7242L166.235 36.6144L166.394 36.4062L166.522 36.1169L166.611 35.8638L166.704 35.5439L166.785 35.1606L166.798 34.8356L166.736 34.6852L166.638 34.5159L166.566 34.3705L166.489 34.0218L166.435 33.6035L166.423 33.2452L166.462 33.0088L166.537 32.7332L166.611 32.5021L166.671 32.2914L166.753 32.0454L166.843 31.8494L166.909 31.7657L166.996 31.6781L167.076 31.6091L167.289 31.4973L167.551 31.3835L167.774 31.2866L167.994 31.1576L168.25 31.0102L168.48 30.9562L168.531 30.9898L168.583 31.0453L168.615 31.0989L168.651 31.3571L168.633 31.6714L168.614 31.9393L168.606 32.09L168.598 32.264L168.614 32.4045L168.663 32.4896L168.734 32.5768L168.802 32.637L169.04 32.7227L169.34 32.7695L169.598 32.7797L169.84 32.7476L170.12 32.6791L170.348 32.5925L170.51 32.4934L170.686 32.3562L170.814 32.217L170.862 32.0934L170.89 31.9378L170.903 31.8041L170.907 31.4111L170.878 30.938L170.839 30.4644L170.814 30.0714L170.803 29.8637L170.798 29.6209L170.814 29.4182L170.869 29.2227L170.956 28.9966L171.046 28.8109L171.177 28.6353L171.351 28.446L171.511 28.3001L171.642 28.2199L171.801 28.1358L171.931 28.0603L172.057 27.9834L172.201 27.8848L172.307 27.7827L172.456 27.4933L172.578 27.127L172.637 26.807L172.623 26.6563L172.583 26.4803L172.54 26.3344L172.516 26.2761L172.483 26.2056L172.449 26.1473L172.374 26.0918L172.277 26.0296L172.217 25.9596L172.218 25.8306L172.265 25.6735L172.307 25.5392L172.342 25.3602L172.384 25.148L172.449 24.9837L172.523 24.902L172.628 24.8233L172.727 24.7967L172.824 24.8666L172.908 24.9989L172.959 25.1189L173.034 25.3806L173.089 25.6837L173.126 26.0198L173.149 26.3802L173.162 26.7552L173.167 27.136L173.168 27.5135L173.168 27.8788L173.17 28.2232L173.176 28.5364L173.191 28.8114L173.221 29.087L173.262 29.4028L173.311 29.7492L173.365 30.1155L173.419 30.4925L173.469 30.869L173.513 31.2353L173.547 31.5817L173.565 31.898L173.567 32.1731L173.526 32.5452L173.442 32.9912L173.35 33.4376L173.289 33.8092L173.251 34.104L173.222 34.4522L173.244 34.747L173.358 35.0246L173.545 35.3272L173.754 35.5349L174.022 35.6206L174.357 35.6472L174.64 35.6325L174.878 35.5668L175.147 35.4475L175.435 35.3021L175.639 35.2144L175.854 35.0538L175.998 34.8817L176.068 34.6006L176.078 34.2475L176.043 33.9514L175.932 33.6416L175.753 33.2935L175.577 33.0133L175.477 32.9117L175.348 32.7979L175.247 32.6908L175.194 32.5785L175.146 32.4381L175.112 32.3161L175.05 32.0608L174.987 31.7754L174.927 31.4637L174.867 31.1315L174.809 30.7838L174.752 30.4255L174.698 30.0612L174.646 29.6969L174.597 29.3375L174.551 28.9874L174.509 28.6517L174.471 28.336L174.436 28.0451L174.407 27.7839L174.328 27.3486L174.255 26.8384L174.317 26.4332L174.364 26.3914L174.437 26.3578L174.505 26.3354L174.801 26.2823L175.159 26.2487L175.548 26.2318L175.938 26.2273L176.298 26.2325L176.598 26.2452L176.931 26.2646L177.333 26.2958L177.764 26.3428L178.191 26.4101L178.577 26.501L178.886 26.6205L178.974 26.6788L179.065 26.7644L179.118 26.8528L179.117 26.9116L179.095 26.9816L179.074 27.0403L178.963 27.323L178.818 27.6507L178.654 28.0053L178.482 28.3691L178.315 28.7227L178.165 29.0492L178.045 29.3288L177.922 29.6197L177.776 29.9713L177.631 30.3458L177.51 30.7047L177.437 31.0097L177.413 31.3026L177.422 31.6522L177.483 31.94L177.632 32.193L177.856 32.4503L178.09 32.5932L178.422 32.5407L178.801 32.3549L179.118 32.1726L179.198 32.1303L179.316 32.069L179.471 31.9884L179.662 31.8892L179.887 31.7715L180.147 31.6347L180.438 31.4796L180.761 31.3065L181.115 31.1148L181.498 30.9051L181.908 30.678L182.346 30.4325L182.81 30.1693L183.069 29.9713L183.372 29.7188L183.679 29.4401L183.955 29.161L184.16 28.9085L184.336 28.587L184.495 28.1848L184.581 27.8282L184.586 27.6171L184.555 27.371L184.49 27.1751L184.211 26.9108L183.812 26.6668L183.463 26.4775L183.178 26.3291L182.846 26.1735L182.478 26.0126L182.087 25.8483L181.684 25.6819L181.724 25.592L181.776 25.4899L181.827 25.4043L181.865 25.339L181.915 25.2671L181.969 25.217L182.277 25.145L182.664 25.1435L182.997 25.1717L183.417 25.2446L183.846 25.3221L184.274 25.4033L184.688 25.4869L185.08 25.5716L185.437 25.6553L185.749 25.7375L186.005 25.8166L186.195 25.8911L186.306 25.9596L186.336 26.0151L186.353 26.0871L186.359 26.1473L186.297 26.4873L186.164 26.8847L185.996 27.2996L185.828 27.69L185.698 28.0155L185.596 28.2976L185.469 28.6323L185.332 28.9931L185.2 29.355L185.084 29.6934L185.001 29.9813L184.929 30.2965L184.856 30.6808L184.792 31.0899L184.744 31.4794L184.723 31.8048V32.0865L184.748 32.4192L184.813 32.6906L184.946 32.8928L185.138 33.1035L185.331 33.2459L185.526 33.3097L185.772 33.3398L185.984 33.3433L186.255 33.2965L186.568 33.2076L186.824 33.1107L187.202 32.8826L187.629 32.578L187.987 32.3153L188.261 32.0922L188.581 31.8018L188.924 31.511L189.264 31.2869L189.578 31.1975L189.629 31.2127L189.684 31.2478L189.72 31.2876L189.745 31.3581L189.76 31.4447L189.765 31.5202L189.7 31.8484L189.578 32.2249L189.488 32.5484L189.453 32.7693L189.426 33.0305L189.435 33.2464L189.504 33.422L189.612 33.6132L189.721 33.7639L189.851 33.8859L190.025 34.0094L190.186 34.0863L190.419 34.1247L190.699 34.1232L190.936 34.0863L191.171 34.0027L191.435 33.8675L191.634 33.719L191.738 33.5395L191.823 33.3104L191.867 33.1109L191.852 32.9466L191.807 32.7573L191.777 32.5935L191.753 32.2573L191.742 31.8492L191.735 31.4395L191.724 31.0996L191.706 30.939L191.682 30.7497L191.679 30.5891L191.776 30.2716L191.938 29.9043L192.112 29.5405L192.242 29.2312L192.336 28.9154L192.435 28.5297L192.535 28.1198L192.626 27.7309L192.707 27.4079L192.769 27.1297L192.828 26.7985L192.89 26.4332L192.96 26.0545L193.041 25.6814L193.139 25.334L193.259 25.0325L193.405 24.7967L193.46 24.7481L193.532 24.7078L193.592 24.699L193.659 24.7695L193.708 24.8838L193.735 24.9839L193.787 25.2616L193.822 25.5801L193.843 25.9307L193.852 26.3047L193.851 26.6925L193.842 27.0859L193.83 27.4749L193.814 27.8509L193.799 28.205L193.787 28.528L193.779 28.8111L193.775 29.0679L193.769 29.3485L193.761 29.6506L193.75 29.97L193.738 30.3047L193.724 30.6516L193.709 31.0067L193.694 31.3685L193.677 31.7329L193.661 32.0972L193.644 32.4585L193.627 32.8136L193.612 33.16L193.596 33.4942L193.582 33.8127L193.569 34.1137L193.557 34.3934L193.547 34.6491L193.542 34.8996L193.542 35.1711L193.545 35.4619L193.552 35.7692L193.56 36.0912L193.569 36.4249L193.58 36.7688L193.59 37.1204L193.6 37.477L193.608 37.8363L193.613 38.1962L193.615 38.5545L193.613 38.9091L193.606 39.2572L193.594 39.5967L193.576 39.9254L193.55 40.2411L193.516 40.5417L193.474 40.8243L193.422 41.0865L193.359 41.3268L193.279 41.4795L193.162 41.6448L193.082 41.7923L193.024 42.1912L193.02 42.6668L193.082 43.0608L193.234 43.3735L193.477 43.7129L193.735 43.946L194.016 44.0195L194.371 44.0277L194.673 43.9914L194.977 43.8935L195.319 43.7281L195.558 43.5259L195.652 43.2059L195.665 42.7978L195.649 42.4529L195.616 42.0288L195.543 41.5385L195.416 41.1396L195.142 40.7919L195.05 40.5892L195.04 40.4871L195.042 40.2346L195.044 39.956L195.044 39.6544L195.044 39.3334L195.043 38.996L195.042 38.6459L195.04 38.2861L195.039 37.9198L195.037 37.5502L195.035 37.1817L195.032 36.8163L195.03 36.458L195.028 36.1104L195.027 35.7757L195.025 35.4587L195.024 35.1611L195.024 34.8877L195.024 34.6412L195.025 34.4248L195.018 34.2034L195.012 33.9569L195.005 33.6874L194.999 33.3976L194.992 33.0893L194.987 32.7648L194.981 32.4274L194.976 32.0787L194.972 31.7212L194.967 31.3578L194.963 30.99L194.959 30.621L194.956 30.2524L194.953 29.8871L194.951 29.5273L194.949 29.1757L194.948 28.8338L194.947 28.5051V28.1913L194.947 27.8952L194.948 27.6186L194.95 27.3643L194.958 27.0575L194.972 26.6897L194.99 26.2913L195.009 25.8928L195.026 25.525L195.04 25.2183L195.052 24.957L195.064 24.6789L195.076 24.385L195.089 24.0772L195.102 23.756L195.115 23.4236L195.129 23.0807L195.143 22.7286L195.156 22.3687L195.171 22.0024L195.185 21.6309L195.2 21.2556L195.214 20.8776L195.229 20.4986L195.403 20.2506L195.575 19.936L195.694 19.6581L195.799 19.2679L195.876 18.7978L195.882 18.3976L195.796 17.9773L195.622 17.5021L195.371 17.1819L195.056 17.0995L194.647 17.1152L194.238 17.1996L193.923 17.3241L193.643 17.5671L193.379 17.9217L193.225 18.2547L193.231 18.5946L193.323 18.9948L193.405 19.3349L193.445 19.4955L193.487 19.6845L193.502 19.8452L193.492 19.9072L193.472 19.9756L193.457 20.0327L193.395 20.2889L193.329 20.5738L193.258 20.8851L193.183 21.2165L193.106 21.5629L193.026 21.9187L192.945 22.2793L192.862 22.6397L192.78 22.9945L192.698 23.3389L192.616 23.6679L192.537 23.9764L192.46 24.259L192.386 24.511L192.295 24.8213L192.184 25.1958L192.052 25.5846L191.899 25.9357L191.726 26.1994L191.701 26.2178L191.665 26.2358L191.636 26.244L191.51 26.1919L191.376 26.0936L191.26 26.0114L191.153 25.9544L191.029 25.8906L190.938 25.8234L190.916 25.7952L190.897 25.7596L190.885 25.726L190.828 25.4249L190.79 25.0688L190.767 24.6759L190.759 24.2635L190.76 23.8504L190.768 23.4539L190.781 23.0926L190.795 22.7843L190.829 22.4895L190.893 22.1454L190.974 21.7686L191.059 21.3764L191.134 20.9852L191.187 20.6116L191.203 20.2727L191.17 19.9854L191.065 19.751L190.891 19.5018L190.705 19.3324L190.392 19.2321L190.001 19.195L189.677 19.2348L189.428 19.3924L189.176 19.64L189.016 19.8875L189.012 20.2207L189.089 20.6223L189.114 20.9605L188.987 21.3106L188.779 21.7058L188.596 22.041L188.448 22.3376L188.268 22.6905L188.071 23.0707L187.871 23.4497L187.684 23.7988L187.523 24.089L187.437 24.2802L187.328 24.5011L187.201 24.6522L187.17 24.6604L187.134 24.6585L187.103 24.6522L186.972 24.6211L186.813 24.5686L186.623 24.4981L186.401 24.4139L186.146 24.3195L185.853 24.2199L185.521 24.1178L185.148 24.0175L184.732 23.9231L184.27 23.8384L183.76 23.7677L183.201 23.7144L183.5 23.1795L183.745 22.7512L183.928 22.4611L184.051 22.3189L184.207 22.1633L184.349 22.041L184.707 21.7915L185.146 21.5203L185.519 21.291L185.698 21.1819L185.911 21.0494L186.075 20.9154L186.307 20.6042L186.535 20.2042L186.683 19.8427L186.751 19.4624L186.774 19.0072L186.727 18.627L186.632 18.4247L186.478 18.2091L186.307 18.0719L185.961 18.0169L185.536 18.0619L185.189 18.162L184.864 18.3832L184.523 18.7061L184.258 19.0025L184.054 19.2913L183.835 19.6574L183.616 20.0516L183.41 20.4249L183.231 20.7284L183.064 20.976L182.862 21.2643L182.64 21.5766L182.411 21.8968L182.191 22.2081L181.991 22.4945L181.827 22.7393L181.692 22.9723L181.551 23.2555L181.403 23.5715L181.248 23.9034L181.085 24.2346L180.913 24.5484L180.731 24.828L180.538 25.0556L180.334 25.2158L180.304 25.2193L180.267 25.2173L180.237 25.2158L179.853 25.1687L179.405 25.0952L179.021 25.028L178.632 24.9959L178.178 24.9473L177.858 24.7957L177.849 24.765V24.7287L177.858 24.6981L178.044 24.4675L178.33 24.2409L178.663 24.0274L178.99 23.8364L179.254 23.6778L179.458 23.5456L179.7 23.4002L179.914 23.3028L180.061 23.2824L180.237 23.2757L180.379 23.2503L180.689 23.0578L181.015 22.7751L181.265 22.5074L181.486 22.2059L181.707 21.8259L181.828 21.4792L181.826 21.2768L181.777 21.0442L181.685 20.8716L181.399 20.7162L181.004 20.6241L180.657 20.5937L180.386 20.6306L180.073 20.7192L179.817 20.8263L179.593 20.977L179.349 21.1859L179.164 21.3816L179.074 21.5724L178.987 21.8084L178.887 21.9895L178.671 22.1703L178.389 22.3458L178.063 22.5149L177.72 22.6773L177.384 22.8319L177.079 22.9781L176.831 23.1148L176.559 23.302L176.241 23.5411L175.906 23.7941L175.582 24.0225L175.299 24.1878L175.053 24.3001L174.755 24.4032L174.504 24.4201L174.449 24.3865L174.397 24.331L174.362 24.2775L174.323 24.1066L174.315 23.898L174.317 23.7224V23.4492L174.325 23.1367L174.339 22.7945L174.359 22.4327L174.382 22.0612L174.408 21.6899L174.434 21.3288L174.46 20.9877L174.484 20.6766L174.505 20.4057L174.52 20.0489L174.545 19.632L174.595 19.2801L174.764 18.8954L175.003 18.4571L175.157 18.0721L175.189 17.7088L175.169 17.2803L175.06 16.9468L174.774 16.7145L174.358 16.5387L173.987 16.4816L173.575 16.6091L173.13 16.8768L172.824 17.1794L172.75 17.4187L172.73 17.72L172.727 17.9745L172.741 18.3715L172.777 18.8384L172.772 19.2351L172.726 19.4948L172.659 19.7819L172.573 20.0919L172.471 20.4196L172.358 20.7593L172.237 21.1059L172.112 21.4546L171.985 21.8002L171.862 22.1374L171.745 22.4616L171.637 22.7672L171.543 23.0493L171.466 23.3025L171.389 23.5827L171.307 23.9004L171.222 24.2491L171.134 24.6201L171.045 25.0073L170.956 25.4033L170.83 25.465L170.671 25.5171L170.535 25.5385L170.346 25.5288L170.132 25.4835L169.973 25.4033L169.948 25.3614L169.933 25.3079L169.928 25.2608L169.898 24.9869L169.884 24.6722L169.884 24.3263L169.894 23.9595L169.911 23.5827L169.933 23.2054L169.958 22.8381L169.982 22.4912L170.003 22.1747L170.018 21.8991L170.027 21.5826L170.03 21.2023L170.036 20.7914L170.053 20.3823L170.092 20.0078L170.16 19.7007L170.297 19.4614L170.493 19.197L170.625 18.9577L170.659 18.7365L170.657 18.4736L170.625 18.2524L170.506 17.864L170.312 17.4274L170.063 17.1341L169.709 17.0524L169.263 17.0808L168.9 17.1792L168.625 17.3786L168.354 17.6804L168.194 17.9748L168.23 18.2831L168.359 18.6446L168.434 18.9579L168.414 19.2318L168.363 19.5423L168.288 19.8805L168.193 20.2371L168.086 20.6022L167.973 20.9665L167.861 21.3208L167.754 21.6558L167.661 21.9618L167.586 22.2295L167.517 22.4985L167.442 22.7933L167.36 23.1106L167.274 23.447L167.183 23.7996L167.089 24.1651L166.993 24.5402L166.896 24.9214L166.798 25.3062L166.761 25.3582L166.707 25.4117L166.656 25.4486L166.569 25.4638L166.465 25.4588L166.378 25.4486L166.237 25.4471L166.051 25.4421L165.86 25.411L165.847 25.1308L165.834 24.8196L165.821 24.4844L165.809 24.1313L165.797 23.7677L165.787 23.3999L165.778 23.0346L165.772 22.6785L165.767 22.3383L165.765 22.0206L165.766 21.732L165.77 21.4792L165.773 21.2367L165.775 20.9692L165.775 20.6799L165.775 20.3716L165.774 20.0469L165.775 19.7087L165.776 19.3596L165.779 19.0025L165.785 18.6401L165.794 18.2756L165.806 17.9113L165.822 17.5499L165.843 17.1946L165.869 16.848L165.901 16.5128L165.94 16.1918L165.985 15.888L166.038 15.6039L166.1 15.3424L166.17 15.1063L166.25 14.8984L166.33 14.8994L166.415 14.9009L166.506 14.9029L166.602 14.9051L166.703 14.9081L166.811 14.9113L166.924 14.9151L167.044 14.9193L167.17 14.9238L167.302 14.9288L167.441 14.934L167.587 14.9397L167.739 14.9457L167.899 14.9522L168.066 14.9589L168.24 14.9661L168.422 14.9736L168.612 14.9816L168.809 14.9898L169.015 14.9982L169.228 15.007L169.45 15.0162L169.681 15.0256L169.919 15.0353L170.167 15.0453L170.424 15.0558L170.69 15.0662L170.965 15.0769L171.249 15.0879L171.543 15.0991L171.847 15.1105L172.161 15.1222L172.484 15.1342L172.818 15.1464L173.162 15.1589L173.517 15.1716L173.882 15.1843L174.258 15.1972L174.645 15.2104L175.043 15.2238L175.453 15.2373L175.874 15.251L176.306 15.2647L176.751 15.2786L177.207 15.2928L177.675 15.307L178.156 15.3215L178.648 15.3359L179.154 15.3504L179.672 15.365L180.203 15.3797L180.747 15.3947L181.304 15.4096L181.874 15.4246L182.458 15.4395L183.055 15.4544L183.666 15.4694L184.262 15.6529L184.618 15.8364L184.814 15.9647L185.141 16.0917L185.551 16.1502L185.887 16.1071L186.205 15.8673L186.505 15.4891L186.683 15.1242L186.726 14.7843L186.704 14.3637L186.625 13.9499L186.495 13.6314L186.452 13.5704L186.38 13.4862L186.279 13.3873L186.148 13.282L185.988 13.1787L185.797 13.0855L185.575 13.0111L185.321 12.9637L185.036 12.9515L184.719 12.9832L184.369 13.0668L183.986 13.211L183.569 13.4239L183.118 13.7138L182.959 13.7195L182.779 13.7252L182.58 13.7312L182.363 13.737L182.129 13.7432L181.877 13.7492L181.612 13.7551L181.331 13.7611L181.038 13.7671L180.733 13.7728L180.416 13.7783L180.09 13.7838L179.754 13.7892L179.41 13.7945L179.06 13.7995L178.704 13.8042L178.343 13.8087L177.979 13.8129L177.611 13.8166L177.242 13.8204L176.873 13.8236L176.504 13.8266L176.136 13.8288L175.771 13.8308L175.409 13.8323L175.052 13.8333L174.7 13.8338H174.355L174.018 13.8333L173.689 13.8323L173.371 13.8308L173.063 13.8286L172.767 13.8259L172.484 13.8224L172.215 13.8181L171.953 13.8132L171.666 13.8064L171.356 13.7977L171.026 13.7875L170.682 13.776L170.325 13.7633L169.959 13.7497L169.588 13.7352L169.215 13.7203L168.844 13.7051L168.478 13.6896L168.119 13.6747L167.773 13.66L167.442 13.6458L167.13 13.6326L166.84 13.6204L166.575 13.6095L166.339 13.5997L166.387 13.3236L166.43 13.023L166.469 12.702L166.504 12.3646L166.536 12.0142L166.567 11.6544L166.596 11.2891L166.625 10.922L166.654 10.5567L166.684 10.1969L166.716 9.84627L166.751 9.50885L166.789 9.18786L166.832 8.88729L166.879 8.61088L166.933 8.36286L167.027 8.07599L167.166 7.7418L167.325 7.38371L167.481 7.02562L167.608 6.69144L167.683 6.40457L167.715 6.01933L167.702 5.56413L167.638 5.18885L167.515 4.86812L167.328 4.4911L167.097 4.15916L166.843 3.97339L166.471 4.00726L166.047 4.20448L165.725 4.43856L165.502 4.7583L165.315 5.18163L165.207 5.55666L165.221 5.98372L165.301 6.48749L165.35 6.91456L165.345 7.18549L165.331 7.48855L165.308 7.818L165.279 8.16763L165.243 8.53144L165.203 8.90398L165.159 9.27925L165.112 9.65079L165.063 10.0134L165.015 10.3607L164.967 10.6867L164.92 10.9858L164.877 11.2517L164.831 11.5262L164.773 11.8312L164.704 12.1614L164.627 12.5118L164.544 12.8768L164.456 13.2516L164.367 13.6306ZM163.482 25.3062L163.542 24.7521L163.607 24.2541L163.676 23.8095L163.747 23.4161L163.819 23.0715L163.89 22.7731L163.96 22.5189L164.027 22.306L164.09 22.1322L164.11 22.0669L164.14 21.9949L164.18 21.9446L164.253 21.9207L164.352 21.9285L164.405 22.0198L164.429 22.7542L164.451 23.3653L164.47 23.8658L164.488 24.2682L164.504 24.5857L164.519 24.8313L164.532 25.017L164.544 25.1562L164.555 25.2613L164.363 25.2598L164.188 25.2578L164.037 25.2613L163.863 25.273L163.655 25.29L163.482 25.3062ZM163.219 26.7545L163.88 26.7492L164.251 26.734L164.457 26.7545L164.524 26.7709L164.593 26.805L164.645 26.8969L164.633 27.4592L164.626 27.9781L164.623 28.4543L164.621 28.8905L164.622 29.2875L164.622 29.6478V29.9733L164.621 30.2651L164.616 30.5254L164.609 30.756L164.597 30.9582L164.579 31.1347L164.555 31.2864L164.53 31.3618L164.493 31.449L164.457 31.519L164.434 31.566L164.401 31.6196L164.367 31.6614L164.051 31.8828L163.646 32.0987L163.294 32.2695L162.934 32.4436L162.504 32.6308L162.124 32.7349L162.047 32.7329L161.958 32.7165L161.891 32.6898L161.853 32.6398L161.819 32.5678L161.801 32.5021L161.877 32.0897L161.95 31.6758L162.019 31.263L162.086 30.8533L162.15 30.4497L162.213 30.0542L162.274 29.6695L162.335 29.2979L162.396 28.9418L162.457 28.6044L162.519 28.2869L162.583 27.9921L162.649 27.7231L162.718 27.4818L162.79 27.2707L162.866 27.0921L162.946 26.9487L163.032 26.8431L163.123 26.7774L163.219 26.7545ZM165.823 26.6641L166.257 26.6601L166.469 26.6708L166.513 26.7315L166.485 26.8381L166.451 26.9679L166.423 27.0842L166.254 27.7124L166.157 28.0992L166.048 28.2476L166.031 28.2394L166.015 28.1955L166.003 28.1124L165.948 27.5817L165.893 27.0744L165.823 26.6641ZM167.916 25.2608L167.97 25.099L168.04 24.9082L168.104 24.7506L168.19 24.4545L168.304 24.1166L168.479 23.9557L168.499 23.9742L168.515 24.012L168.525 24.0456L168.555 24.2498L168.565 24.4939L168.57 24.6981L168.585 24.8878L168.6 25.1139L168.615 25.3585L168.469 25.3682H168.295L168.15 25.3585L168.083 25.3345L168.004 25.2994L167.916 25.2608ZM167.826 26.7094L168.637 26.7246L168.633 27.4833L168.617 28.0309L168.597 28.407L168.578 28.652L168.567 28.8056L168.569 28.9077L168.331 29.0148L168.108 29.1134L167.916 29.1854L167.727 29.2374L167.502 29.291L167.308 29.3278L167.397 28.9125L167.477 28.5277L167.541 28.2023L167.608 27.8666L167.686 27.4584L167.763 27.0488L167.826 26.7094ZM180.335 27.2722L180.433 27.1935L180.529 27.1282L180.612 27.0844L180.683 27.061L180.77 27.0426L180.845 27.0396L181.121 27.1213L181.429 27.2702L181.685 27.4074L181.993 27.565L182.35 27.7625L182.623 27.9702L182.683 28.0519L182.739 28.1559L182.759 28.2478L182.742 28.2979L182.705 28.3499L182.668 28.3903L182.43 28.5925L182.119 28.8094L181.779 29.0238L181.451 29.2173L181.176 29.3729L180.865 29.5338L180.482 29.716L180.096 29.8896L179.773 30.0253L179.64 30.0856L179.484 30.1528L179.352 30.168L179.314 30.1329L179.278 30.0756L179.255 30.0256L179.267 29.8767L179.31 29.7041L179.352 29.5602L179.468 29.1398L179.622 28.6525L179.773 28.2473L179.932 27.9308L180.141 27.568L180.335 27.2722ZM189.392 23.3025L189.57 23.1633L189.707 23.1942L189.79 23.4602L189.728 24.1607L189.689 24.6577L189.659 24.9889L189.626 25.1926L189.58 25.3059L189.548 25.3258L189.466 25.3288L189.309 25.2982L188.955 25.1787L188.727 25.1134L188.596 25.0736L188.533 25.0532L188.458 25.0235L188.409 24.9832L188.418 24.8948L188.463 24.7872L188.507 24.6983L188.63 24.5023L188.793 24.2814L188.926 24.0902L189.077 23.8479L189.251 23.5553L189.392 23.3025ZM187.666 26.5669L187.778 26.4935L187.919 26.4751L188.041 26.477L188.336 26.5072L188.682 26.5841L188.972 26.6643L189.159 26.7213L189.372 26.8L189.534 26.8974L189.626 27.0179L189.71 27.1765L189.767 27.317L189.804 27.5615L189.815 27.8581L189.812 28.1124L189.799 28.3619L189.77 28.658L189.722 28.9075L189.648 29.0616L189.541 29.2337L189.436 29.3729L189.133 29.6857L188.747 30.0251L188.409 30.3032L188.072 30.5762L187.662 30.8807L187.291 31.0986L187.09 31.1788L186.844 31.246L186.638 31.241L186.521 31.1492L186.417 31.0032L186.36 30.866L186.365 30.5293L186.457 30.1297L186.548 29.793L186.627 29.4068L186.732 28.9443L186.85 28.4856L186.968 28.1121L187.104 27.7513L187.288 27.3252L187.487 26.9059L187.666 26.5669ZM170.25 9.57832L169.964 9.65403L169.646 9.81315L169.41 9.99867L169.28 10.2263L169.178 10.5241L169.132 10.7866L169.171 11.118L169.276 11.501L169.41 11.8071L169.586 12.0484L169.827 12.3014L170.063 12.4675L170.296 12.5108L170.58 12.509L170.813 12.4675L171.049 12.3297L171.295 12.1171L171.466 11.9044L171.576 11.6078L171.643 11.238L171.654 10.9215L171.598 10.6137L171.481 10.2661L171.331 9.99842L171.143 9.84801L170.893 9.71404L170.671 9.62365L170.555 9.60024L170.411 9.58704L170.25 9.57832Z" fill="#B6B6B6"/>
<path d="M247.332 28.6381L247.855 27.1657L248.392 28.6381H247.332ZM241.119 26.3264H241.936C242.304 26.3264 242.503 26.562 242.503 26.827C242.503 27.0921 242.304 27.3277 241.936 27.3277H241.119V26.3264ZM266.621 24.3976C266.039 24.3976 265.568 24.8688 265.568 25.4504V27.5927L263.779 24.9277C263.58 24.6258 263.293 24.3902 262.859 24.3902C262.277 24.3902 261.806 24.854 261.806 25.4356V25.443V30.3461C261.806 30.9277 262.277 31.3988 262.859 31.3988C263.44 31.3988 263.911 30.9277 263.911 30.3461V28.1522L265.7 30.8614C265.899 31.1632 266.238 31.3988 266.635 31.3988C267.21 31.3988 267.673 30.935 267.673 30.3682C267.673 30.3608 267.673 30.3534 267.673 30.3461V25.443C267.673 24.8614 267.21 24.3902 266.628 24.3902C266.628 24.3976 266.621 24.3976 266.621 24.3976ZM260.576 26.4074C261.129 26.4221 261.592 25.9804 261.607 25.4283C261.622 24.8761 261.18 24.4123 260.628 24.3976C260.613 24.3976 260.599 24.3976 260.584 24.3976H257.72C257.138 24.3976 256.667 24.8614 256.667 25.443V25.4504V30.3534C256.667 30.935 257.131 31.4062 257.713 31.4062H257.72H260.576C261.129 31.4209 261.592 30.9792 261.607 30.427C261.622 29.8749 261.18 29.4111 260.628 29.3964C260.613 29.3964 260.599 29.3964 260.584 29.3964H258.795V28.7412H260.253C260.738 28.7559 261.143 28.3657 261.151 27.8872C261.158 27.4086 260.775 26.9964 260.297 26.989C260.282 26.989 260.267 26.989 260.253 26.989H258.795V26.4001H260.576V26.4074ZM255.416 24.3976C254.93 24.3976 254.562 24.6479 254.415 25.0823L253.222 28.2185L252.015 25.0896C251.867 24.6553 251.492 24.405 251.013 24.405C250.24 24.405 249.776 25.178 250.078 25.9436L251.956 30.5448C252.154 31.0455 252.545 31.4136 253.229 31.4136C253.899 31.4136 254.282 31.0455 254.488 30.5448L256.358 25.9436C256.675 25.1927 256.203 24.3976 255.416 24.3976ZM249.092 25.2589C248.871 24.7583 248.488 24.405 247.87 24.405C247.237 24.405 246.869 24.7583 246.648 25.2589L244.66 29.897C244.358 30.5816 244.778 31.4209 245.632 31.4209C246.073 31.4283 246.464 31.1485 246.603 30.7363L246.736 30.3313H248.981L249.129 30.751C249.283 31.1632 249.681 31.4283 250.115 31.4209C250.932 31.4209 251.352 30.5816 251.072 29.9338L249.092 25.2589ZM243.416 28.6381C244.137 28.2847 244.623 27.6369 244.623 26.7313C244.623 25.2589 243.416 24.405 241.995 24.405H240.051C239.47 24.405 238.999 24.8688 238.999 25.4504V25.4577V30.3608C238.999 30.9497 239.477 31.4209 240.066 31.4209C240.655 31.4209 241.126 30.9424 241.126 30.3608V28.9915L242.481 30.9497C242.68 31.2442 243.018 31.4209 243.372 31.4209C244.292 31.4209 244.726 30.4344 244.226 29.7497L243.416 28.6381ZM249.026 24.5007C249.018 24.7436 249.217 24.9497 249.46 24.9497C249.703 24.9571 249.909 24.7583 249.909 24.5154C249.909 24.2724 249.718 24.0663 249.475 24.0663C249.467 24.0663 249.46 24.0663 249.46 24.0663C249.217 24.0737 249.026 24.2651 249.026 24.5007ZM246.257 24.0663C246.015 24.0663 245.823 24.2577 245.823 24.5007C245.823 24.7436 246.015 24.935 246.257 24.935C246.5 24.935 246.692 24.7436 246.692 24.5007C246.684 24.2651 246.493 24.0737 246.257 24.0663ZM226.299 23.4626C225.865 23.3448 225.408 23.2933 224.959 23.2933L224.945 23.2786C224.989 23.0504 225.092 22.8369 225.246 22.6602C225.673 22.7927 226.042 23.0651 226.299 23.4332V23.4626ZM249.46 21.254L249.983 19.7816L250.52 21.254H249.46ZM259.472 24.0369H262.181C262.734 24.0516 263.197 23.6099 263.212 23.0577C263.227 22.5056 262.785 22.0418 262.233 22.027C262.218 22.027 262.203 22.027 262.189 22.027H260.547V18.0737C260.547 17.4847 260.069 17.0135 259.48 17.0135C258.891 17.0135 258.419 17.4921 258.419 18.0737V22.9767C258.412 23.5583 258.883 24.0295 259.465 24.0369C259.465 24.0369 259.465 24.0369 259.472 24.0369ZM254.532 24.0369H257.249C257.801 24.0221 258.243 23.5657 258.228 23.0062C258.213 22.4688 257.786 22.0344 257.249 22.027H255.607V18.0737C255.607 17.4847 255.129 17.0135 254.54 17.0135C253.951 17.0135 253.48 17.4921 253.48 18.0737V22.9767C253.48 23.5583 253.943 24.0295 254.525 24.0369C254.525 24.0369 254.525 24.0369 254.532 24.0369ZM247.752 24.0369C248.194 24.0442 248.584 23.7645 248.724 23.3522L248.856 22.9473H251.102L251.249 23.3669C251.403 23.7792 251.801 24.0442 252.235 24.0369C253.053 24.0369 253.472 23.1976 253.192 22.5497L251.219 17.8823C251.006 17.3816 250.616 17.0283 249.997 17.0283C249.364 17.0283 248.996 17.3816 248.775 17.8823L246.78 22.5203C246.478 23.1976 246.898 24.0369 247.752 24.0369ZM242.812 21.7252C242.26 21.7252 241.826 22.1964 241.826 22.7264C241.826 23.0062 241.929 23.2712 242.127 23.4626C242.51 23.8454 243.165 24.1178 244.137 24.1178C245.779 24.1178 246.684 22.9767 246.684 21.6589V18.0737C246.684 17.4921 246.221 17.0209 245.639 17.0209H245.632C245.043 17.0135 244.564 17.4847 244.557 18.0737V21.6221C244.557 21.9534 244.358 22.1227 244.086 22.1227C243.813 22.1227 243.666 22.0418 243.379 21.8872C243.21 21.7767 243.011 21.7178 242.812 21.7252ZM240.044 24.0295C240.626 24.0369 241.104 23.5804 241.119 22.9915C241.119 22.9841 241.119 22.9767 241.119 22.9694V21.5117H242.643C243.143 21.5117 243.556 21.1068 243.556 20.5988C243.556 20.0982 243.151 19.6859 242.643 19.6859H241.119V19.016H242.908C243.46 19.0013 243.902 18.5448 243.887 17.9853C243.872 17.4479 243.445 17.0135 242.908 17.0062H240.044C239.462 17.0062 238.991 17.47 238.991 18.0516V18.0589V22.962C238.991 23.5436 239.455 24.0148 240.037 24.0221C240.044 24.0369 240.044 24.0369 240.044 24.0295ZM251.588 17.551C251.83 17.551 252.037 17.3596 252.037 17.1166C252.037 16.8737 251.838 16.6749 251.595 16.6749C251.352 16.6749 251.153 16.8737 251.153 17.1166C251.153 17.3596 251.345 17.551 251.588 17.551ZM248.385 17.551C248.621 17.5436 248.819 17.3522 248.819 17.1166C248.819 16.8737 248.621 16.6749 248.378 16.6749C248.135 16.6749 247.936 16.8737 247.936 17.1166C247.943 17.3596 248.142 17.5583 248.385 17.551ZM231.092 16.7338C231.077 16.4099 231.04 16.0638 231.011 15.6589H230.996L230.223 16.6602H229.988C228.545 16.6602 226.991 16.962 225.703 17.6982L225.718 17.735C226.321 17.5142 226.962 17.4037 227.61 17.4037C228.228 17.4037 228.839 17.5142 229.421 17.735L229.053 18.2209C228.522 18.0074 227.963 17.9043 227.396 17.9043C226.594 17.9043 225.806 18.1252 225.254 18.4565L223.781 16.4688H223.767C223.619 18.2283 223.516 20.1865 223.516 21.1878C223.516 23.4626 224.054 23.9191 224.672 24.4344C225.158 24.8393 225.71 25.3031 226.064 26.7755C226.284 27.681 226.432 27.8798 226.969 27.8798C227.418 27.8798 227.624 27.7105 227.823 26.9448C228.206 25.4872 229.008 24.751 229.752 24.1031C230.591 23.3522 231.357 22.7117 231.357 21.2761C231.357 20.4221 231.239 19.7007 230.989 18.8172C231.607 19.5019 231.99 20.4074 231.99 21.497C231.99 22.6381 231.57 23.4258 230.216 24.6111C229.178 25.5313 228.861 25.9142 228.427 27.3056C228.11 28.3068 227.536 29.3669 225.968 29.3669C225.46 29.3669 224.959 29.2712 224.495 29.0798L224.481 29.1166C225.872 30.8246 228.044 31.8111 230.392 31.8111C234.714 31.8111 237.931 28.4982 237.931 24.2062C237.902 20.2823 235.192 17.1976 231.092 16.7338Z" fill="#B6B6B6"/>
<path d="M3.84495 31.7933H3.07839L2.93238 30.152H3.69894L3.84495 31.7933ZM50.155 31.7933H50.9216L51.0676 30.152H50.301L50.155 31.7933ZM2.49434 30.1641H1.72778L1.87379 31.8055H2.64036L2.49434 30.1641ZM51.3718 31.7933H52.1383L52.2843 30.152H51.5178L51.3718 31.7933ZM7.72643 32.1945C7.75077 32.766 7.30056 33.2401 6.72868 33.2644C6.71652 33.2644 6.69218 33.2644 6.68001 33.2644C6.09597 33.2644 5.6336 32.7903 5.6336 32.2067C5.6336 32.1945 5.6336 32.1824 5.6336 32.1824V32.1702C5.6336 31.5866 6.0473 31.1003 6.66785 31.1003C7.25189 31.1003 7.71426 31.5745 7.71426 32.1581C7.72643 32.1702 7.72643 32.1702 7.72643 32.1945ZM4.47767 32.1945C4.47767 33.3495 5.41458 34.2736 6.66785 34.2736C7.92111 34.2736 8.88236 33.3374 8.88236 32.1824V32.1702C8.88236 31.0152 7.94545 30.0912 6.69218 30.0912C5.43891 30.0912 4.47767 31.0274 4.47767 32.1945ZM9.58808 34.1884H10.7197V32.7538H12.6543V31.8298H10.7197V31.1489H12.8612V30.1763H9.58808V34.1884ZM13.5182 34.1884H14.6498V32.7538H16.5845V31.8298H14.6498V31.1489H16.7913V30.1763H13.5182V34.1884ZM19.9792 34.1884H21.1108V31.1489H22.3398V30.1763H18.7503V31.1489H19.9792V34.1884ZM23.082 34.1884H24.2136V32.6687H25.6737V34.1884H26.8053V30.1763H25.6737V31.6839H24.2136V30.1763H23.082V34.1884ZM27.5719 34.1884H30.8936V33.2401H28.6913V32.6079H30.6503V31.7325H28.6913V31.1246H30.8571V30.1763H27.5719V34.1884ZM33.9964 34.2249H34.982L35.7972 31.9149L36.6246 34.2249H37.6102L38.9729 30.1763H37.8048L37.087 32.4985L36.2961 30.1641H35.3226L34.5317 32.4985L33.8139 30.1763H32.6214L33.9964 34.2249ZM40.3114 32.6079L40.7738 31.465L41.224 32.6079H40.3114ZM38.4862 34.1884H39.6787L39.9707 33.4711H41.5525L41.8567 34.1884H43.0734L41.3335 30.1398H40.2384L38.4862 34.1884ZM43.5966 34.1884H46.7116V33.2158H44.7282V30.1763H43.5966V34.1884ZM47.3443 34.1884H50.4592V33.2158H48.4759V30.1763H47.3443V34.1884Z" fill="#B6B6B6"/>
<path d="M45.5556 20.0729H43.3533C43.1342 19.538 42.9031 19.1125 41.6741 19.1125C40.8224 19.1125 40.4574 19.465 40.4574 19.8176C40.4574 20.2067 40.7616 20.5228 41.6985 20.7295L43.694 21.2644C44.9959 21.617 45.6286 22.6505 45.6286 23.7325C45.6286 24.3404 45.4948 25.0699 44.9229 25.6778C44.497 26.1277 43.84 26.7234 41.6741 26.7234C38.7052 26.7234 37.7196 24.8511 37.7196 23.7082H40.0315C40.2627 24.535 40.8224 24.8511 41.954 24.8511C42.7327 24.8511 43.4019 24.5714 43.4019 23.9757C43.4019 23.4043 42.9152 23.1976 42.2947 23.0274L40.7251 22.6018C39.9707 22.3708 39.3379 22.1884 38.8877 21.8115C37.7196 20.8146 37.8048 19.0274 39.0703 18.1033C39.776 17.5927 40.4939 17.3252 41.6498 17.3252C43.0004 17.3252 43.767 17.7143 44.3753 18.1277C44.8986 18.4681 45.5434 19.3678 45.5556 20.0729ZM8.43213 13.7264C8.45646 13.7994 13.0315 26.614 13.0315 26.614H15.7692L19.9792 15.9514H46.1397L46.3343 13.7264H17.9716L14.4794 22.5653L11.3402 13.7264H8.43213ZM31.0518 22.0061L34.4709 26.614H36.6124V17.4954H34.1545V22.4559L31.0639 17.5076H28.7034V26.614H31.0639V22.0061H31.0518ZM46.4195 26.1398C46.4195 25.8723 46.2005 25.6535 45.9328 25.6535C45.6651 25.6535 45.4461 25.8723 45.4461 26.1398C45.4461 26.4073 45.6651 26.6261 45.9328 26.6261C46.2005 26.6261 46.4317 26.4073 46.4195 26.1398C46.4317 26.1398 46.4317 26.1398 46.4195 26.1398ZM46.3708 26.1398C46.3708 26.3708 46.1762 26.5653 45.945 26.5653C45.7138 26.5653 45.5191 26.3708 45.5191 26.1398C45.5191 25.9088 45.7138 25.7143 45.945 25.7143C46.1762 25.7021 46.3708 25.8845 46.3708 26.1398C46.3708 26.1277 46.3708 26.1277 46.3708 26.1398ZM46.164 26.0304C46.164 25.9331 46.0788 25.8602 45.9936 25.8602C45.9815 25.8602 45.9815 25.8602 45.9693 25.8602H45.7381V26.3708H45.8476V26.2006H45.9328L46.0423 26.3708H46.1762L46.0545 26.1884C46.1275 26.1763 46.1762 26.1033 46.164 26.0304ZM46.0545 26.0426C46.0545 26.079 46.018 26.1155 45.9815 26.1155H45.9693H45.8598V25.9696H45.9693C46.0058 25.9574 46.0545 25.9818 46.0666 26.0182C46.0545 26.0304 46.0666 26.0304 46.0545 26.0426ZM18.0324 26.614H20.6606L21.1473 25.1915H24.6151L25.114 26.614H27.6935L24.3839 17.5076H21.5975L18.0324 26.614ZM21.8774 23.538L22.8995 20.5106L23.8972 23.538H21.8774Z" fill="#B6B6B6"/>
<defs>
<clipPath id="clip0">
<rect width="48" height="48" fill="white" transform="translate(78)"/>
</clipPath>
<clipPath id="clip1">
<rect width="48" height="48" fill="white" transform="translate(294)"/>
</clipPath>
</defs>
</svg>
